solid OpenSCAD_Model
  facet normal -1 0 0
    outer loop
      vertex 0 0 0
      vertex 0 0 30
      vertex 0 2 2
    endloop
  endfacet
  facet normal -1 0 0
    outer loop
      vertex 0 0 0
      vertex 0 2 2
      vertex 0 7 0
    endloop
  endfacet
  facet normal -1 0 0
    outer loop
      vertex 0 5 30
      vertex 0 7 0
      vertex 0 5 2
    endloop
  endfacet
  facet normal -1 0 0
    outer loop
      vertex 0 2 2
      vertex 0 5 2
      vertex 0 7 0
    endloop
  endfacet
  facet normal -1 0 0
    outer loop
      vertex 0 7 0
      vertex 0 5 30
      vertex 0 7 30
    endloop
  endfacet
  facet normal -1 0 0
    outer loop
      vertex 0 2 2
      vertex 0 0 30
      vertex 0 2 30
    endloop
  endfacet
  facet normal 0 -1 0
    outer loop
      vertex 0 0 30
      vertex 0 0 0
      vertex 14 0 0
    endloop
  endfacet
  facet normal 0 -1 0
    outer loop
      vertex 14 0 30
      vertex 0 0 30
      vertex 14 0 0
    endloop
  endfacet
  facet normal 0 0 -1
    outer loop
      vertex 0 0 0
      vertex 0 7 0
      vertex 14 0 0
    endloop
  endfacet
  facet normal 0 0 -1
    outer loop
      vertex 14 0 0
      vertex 0 7 0
      vertex 14 7 0
    endloop
  endfacet
  facet normal 0 1 0
    outer loop
      vertex 0 7 0
      vertex 0 7 30
      vertex 14 7 0
    endloop
  endfacet
  facet normal 0 1 0
    outer loop
      vertex 14 7 0
      vertex 0 7 30
      vertex 14 7 30
    endloop
  endfacet
  facet normal 0 0 1
    outer loop
      vertex 0 7 30
      vertex 0 5 30
      vertex 14 5 30
    endloop
  endfacet
  facet normal 0 0 1
    outer loop
      vertex 14 7 30
      vertex 0 7 30
      vertex 14 5 30
    endloop
  endfacet
  facet normal 0 -1 0
    outer loop
      vertex 0 5 30
      vertex 0 5 2
      vertex 14 5 2
    endloop
  endfacet
  facet normal 0 -1 0
    outer loop
      vertex 14 5 30
      vertex 0 5 30
      vertex 14 5 2
    endloop
  endfacet
  facet normal 0 0 1
    outer loop
      vertex 0 5 2
      vertex 0 2 2
      vertex 14 2 2
    endloop
  endfacet
  facet normal 0 0 1
    outer loop
      vertex 14 5 2
      vertex 0 5 2
      vertex 14 2 2
    endloop
  endfacet
  facet normal 0 1 0
    outer loop
      vertex 0 2 2
      vertex 0 2 30
      vertex 14 2 2
    endloop
  endfacet
  facet normal 0 1 0
    outer loop
      vertex 14 2 2
      vertex 0 2 30
      vertex 14 2 30
    endloop
  endfacet
  facet normal 0 0 1
    outer loop
      vertex 0 2 30
      vertex 0 0 30
      vertex 14 0 30
    endloop
  endfacet
  facet normal 0 0 1
    outer loop
      vertex 14 2 30
      vertex 0 2 30
      vertex 14 0 30
    endloop
  endfacet
  facet normal 1 0 0
    outer loop
      vertex 14 5 2
      vertex 14 0 0
      vertex 14 7 0
    endloop
  endfacet
  facet normal 1 0 0
    outer loop
      vertex 14 2 2
      vertex 14 2 30
      vertex 14 0 30
    endloop
  endfacet
  facet normal 1 0 0
    outer loop
      vertex 14 7 30
      vertex 14 5 30
      vertex 14 7 0
    endloop
  endfacet
  facet normal 1 0 0
    outer loop
      vertex 14 2 2
      vertex 14 0 0
      vertex 14 5 2
    endloop
  endfacet
  facet normal 1 0 0
    outer loop
      vertex 14 0 30
      vertex 14 0 0
      vertex 14 2 2
    endloop
  endfacet
  facet normal 1 0 0
    outer loop
      vertex 14 5 30
      vertex 14 5 2
      vertex 14 7 0
    endloop
  endfacet
endsolid OpenSCAD_Model
